<?xml version="1.0" encoding="UTF-8"?>
<svg id="Calque_2" data-name="Calque 2" xmlns="http://www.w3.org/2000/svg" viewBox="0 0 767.59 570.51">
  <defs>
    <style>
      .cls-1 {
        fill: #fff;
      }

      .cls-2 {
        font-family: BodoniXT, BodoniXT;
        font-size: 51px;
      }

      .cls-3 {
        fill: #050505;
        stroke: #fff;
        stroke-miterlimit: 10;
      }
    </style>
  </defs>
  <g id="Calque_2-2" data-name="Calque 2">
    <g id="Calque_1-2" data-name="Calque 1">
      <g>
        <g>
          <g>
            <ellipse cx="330.1" cy="327.51" rx="210" ry="200.5"/>
            <path d="m330.1,127.51c28.29,0,55.73,5.29,81.56,15.72,24.95,10.08,47.35,24.5,66.59,42.87,19.24,18.37,34.34,39.76,44.89,63.57,10.92,24.65,16.46,50.84,16.46,77.83s-5.54,53.18-16.46,77.83c-10.55,23.81-25.65,45.2-44.89,63.57-19.24,18.37-41.65,32.8-66.59,42.87-25.83,10.43-53.27,15.72-81.56,15.72s-55.73-5.29-81.56-15.72c-24.95-10.08-47.35-24.5-66.59-42.87-19.24-18.37-34.34-39.76-44.89-63.57-10.92-24.65-16.46-50.84-16.46-77.83s5.54-53.18,16.46-77.83c10.55-23.81,25.65-45.2,44.89-63.57,19.24-18.37,41.65-32.8,66.59-42.87,25.83-10.43,53.27-15.72,81.56-15.72m0-1c-116.26,0-210.5,89.99-210.5,201s94.24,201,210.5,201,210.5-89.99,210.5-201-94.24-201-210.5-201h0Z"/>
          </g>
          <g>
            <circle cx="329.1" cy="338.01" r="211"/>
            <path d="m329.1,127.51c28.42,0,55.99,5.57,81.94,16.54,25.07,10.6,47.58,25.78,66.91,45.11s34.51,41.84,45.11,66.91c10.98,25.95,16.54,53.52,16.54,81.94s-5.57,55.98-16.54,81.94c-10.6,25.07-25.78,47.58-45.11,66.91-19.33,19.33-41.84,34.51-66.91,45.11-25.95,10.98-53.52,16.54-81.94,16.54s-55.98-5.57-81.94-16.54c-25.07-10.6-47.58-25.78-66.91-45.11-19.33-19.33-34.51-41.84-45.11-66.91-10.98-25.95-16.54-53.52-16.54-81.94s5.57-55.98,16.54-81.94c10.6-25.07,25.78-47.58,45.11-66.91s41.84-34.51,66.91-45.11c25.95-10.98,53.52-16.54,81.94-16.54m0-1c-116.81,0-211.5,94.69-211.5,211.5s94.69,211.5,211.5,211.5,211.5-94.69,211.5-211.5-94.69-211.5-211.5-211.5h0Z"/>
          </g>
          <g>
            <path class="cls-1" d="m330.44,527.17c-8.42,0-16.95-.57-25.35-1.7-50.03-6.71-94.46-32.5-125.09-72.63s-43.81-89.79-37.1-139.83c6.12-45.65,28.62-87.4,63.36-117.57,34.43-29.9,78.37-46.36,123.72-46.36,8.42,0,16.95.57,25.35,1.7,50.03,6.71,94.46,32.5,125.09,72.63s43.81,89.79,37.1,139.83c-6.12,45.65-28.62,87.4-63.36,117.57-34.43,29.9-78.37,46.36-123.72,46.36Z"/>
            <path d="m329.99,148.59v1c8.39,0,16.89.57,25.27,1.69,25.22,3.38,49.02,11.6,70.75,24.43,20.98,12.39,39.16,28.55,54.01,48.01,14.86,19.46,25.65,41.25,32.07,64.76,6.65,24.34,8.31,49.47,4.93,74.7-6.1,45.53-28.55,87.17-63.19,117.26-34.34,29.82-78.16,46.24-123.39,46.24-8.4,0-16.9-.57-25.29-1.69-25.22-3.38-49.02-11.6-70.75-24.43-20.98-12.39-39.16-28.55-54.01-48.01-14.86-19.46-25.65-41.25-32.07-64.76-6.65-24.34-8.31-49.47-4.93-74.7,6.1-45.53,28.55-87.17,63.19-117.25,34.34-29.82,78.16-46.24,123.39-46.24v-1m0,0c-93.46,0-174.82,69.17-187.58,164.36-13.91,103.74,58.9,199.12,162.62,213.02,8.55,1.15,17.03,1.7,25.42,1.7,93.46,0,174.82-69.17,187.58-164.36,13.91-103.74-58.9-199.12-162.62-213.02-8.55-1.15-17.03-1.7-25.42-1.7h0Z"/>
          </g>
        </g>
        <g>
          <g>
            <rect class="cls-3" x="246.84" y="197.27" width="34.69" height="281.98"/>
            <rect class="cls-3" x="224.6" y="193.51" width="79.18" height="7.52"/>
            <rect class="cls-3" x="224.6" y="475.49" width="79.18" height="7.52"/>
            <rect class="cls-3" x="224.6" y="193.51" width="4.45" height="0"/>
          </g>
          <g>
            <rect class="cls-3" x="373.16" y="197.27" width="34.69" height="281.98"/>
            <rect class="cls-3" x="350.92" y="193.51" width="79.18" height="7.52"/>
            <rect class="cls-3" x="350.92" y="475.49" width="79.18" height="7.52"/>
            <rect class="cls-3" x="350.92" y="193.51" width="4.45" height="0"/>
          </g>
        </g>
        <path class="cls-1" d="m59.52,264.31c-4.14,15.59-77.76,126.94,45.04,106.07,125.1-21.26,451.99-165.76,451.99-165.76l36,22.75-4.8,39.31s-299.05,124.11-491.52,164.21c-192.47,40.1-36.7-166.58-36.7-166.58Z"/>
        <path d="m567.02,202.12c-.69,6.72-4.16,13.53-1.41,14.45l21.74,16.04s7.09,26.14,6.68,25.72l13.99,3.14c2.73,3,1.66-5.34,1.35-9.35l.87-15.44c-.12-.76,41.15-21.45,41.29-20.07l27.04,56.95c.05.53-.14,1.03-.52,1.39l-3.63,3.37c-1.11,1.03-.37,2.92,1.25,3.23l7.6,2.97c-.91-.13.57-.18,1.91,1.24l-1.91-1.24c-.73,1.58,19.14-2.66,20.79-3.4h0c.6-.27.97-.82,1-1.46l3.18-89.82c.02-.65-.6.27,0,0l45.21-23.14s24.93-18.23,8.57-24.6c0,0-11.98-2.16-23.51.25l-50.17,22.66c-.48.2-1.04.2-1.56,0l-83.72-33.09c-.86-.34-1.8-.11-2.29.56l-13.4,18.19c-.96,1.3.35,3.2,2.08,3.02l7.73-.81c.45-.05.92.06,1.33.29,0,0,41.73,43.88,37.64,41.43l-40.36,18.23"/>
        <path class="cls-1" d="m536.58,214.02c3.03-7.6,5.73-15.33,8.11-23.17.56-1.85-2.33-2.64-2.89-.8-2.38,7.83-5.08,15.56-8.11,23.17-.71,1.79,2.19,2.57,2.89.8h0Z"/>
        <path class="cls-1" d="m534.76,209.19c.03.19.03.21.01.07.01.11.02.21.04.32.02.16.03.32.04.47.03.37.04.74.05,1.11,0,.71-.03,1.43-.11,2.13-.01.11-.01.1,0,0-.01.1-.03.21-.05.31-.02.16-.05.31-.08.46-.07.36-.15.72-.24,1.07-.18.7-.41,1.38-.68,2.05s.25,1.51.87,1.77c.67.28,1.5.04,1.87-.61,1-1.76.59-3.69.54-5.6,0-.18,0-.37.02-.55s.02-.08,0,.04c.02-.1.04-.2.06-.3.04-.18.1-.35.15-.52.05-.16.04-.08-.02.03.04-.09.08-.17.13-.26.04-.07.08-.13.11-.19.1-.17.11-.12-.02,0,.05-.05.09-.1.14-.15.19-.23-.18.11-.05.03.06-.04.22-.09.02-.03-.25.07.02,0,.07,0-.06,0-.35.04-.14.04-.36,0-.19-.02-.03.03.6.22,1.4-.14,1.69-.69s.29-1.39-.23-1.82-1.14-.75-1.87-.75c-.6,0-1.22.22-1.72.56-.99.68-1.53,1.64-2,2.72-.2.46-.4.92-.66,1.34-.02.03-.23.31-.11.16s-.11.11-.14.14c-.27.31.23-.18-.02.02-.21.17.29-.09.02-.01-.26.07.25.02.08,0-.03,0-.21-.02-.23,0,.05-.04.36.05.04-.01-.26-.05.23.1.07.03-.27-.12.06-.02.05.06-.04-.04-.09-.08-.12-.13l.13.16c-.15-.22.06.3.01.02.04.22.01.24.02,0,.03-.79-.71-1.54-1.5-1.5-.84.04-1.47.66-1.5,1.5-.09,2.73,3.45,3.74,5.18,1.9.79-.84,1.14-1.9,1.63-2.91.12-.24.24-.47.4-.69-.18.25.07-.06.1-.1.05-.05.35-.26.08-.09.1-.06.2-.13.31-.19-.27.14-.02-.05.07,0l-.18.03c.14,0,.14,0,.01,0-.09,0-.17-.03-.25-.09.14.08.13.07-.01-.04l1.46-2.51c-2.17-.79-3.78,1.51-4.12,3.36-.19,1.03-.09,2.03-.02,3.07.03.48.06.97.02,1.45,0,.05-.08.46-.01.15-.03.11-.04.22-.07.33s-.06.22-.1.32c.09-.24-.03.05-.08.13l2.74,1.16c1.24-3.04,1.49-6.37,1.02-9.59-.11-.78-1.14-1.28-1.85-1.05-.85.28-1.17,1.01-1.05,1.85h0Z"/>
        <text/>
        <text class="cls-2" transform="translate(145.96 199.6) rotate(-49.27) scale(1.17 1)"><tspan x="0" y="0">H</tspan></text>
        <text class="cls-2" transform="translate(177.57 165.84) rotate(-38.66) scale(1.17 1)"><tspan x="0" y="0">A</tspan></text>
        <text class="cls-2" transform="translate(209.63 142.23) rotate(-29.18) scale(1.17 1)"><tspan x="0" y="0">L</tspan></text>
        <text class="cls-2" transform="translate(242.11 125.61) rotate(-19.63) scale(1.17 1)"><tspan x="0" y="0">A</tspan></text>
        <text class="cls-2" transform="translate(280.55 113.85) rotate(-12.67) scale(1.17 1)"><tspan x="0" y="0"> </tspan></text>
        <text class="cls-2" transform="translate(295.66 110.8) rotate(-5.76) scale(1.17 1)"><tspan x="0" y="0">V</tspan></text>
        <text class="cls-2" transform="translate(335.29 108.22) rotate(4.39) scale(1.17 1)"><tspan x="0" y="0">O</tspan></text>
        <text class="cls-2" transform="translate(377.96 113.21) rotate(14.71) scale(1.17 1)"><tspan x="0" y="0">Y</tspan></text>
        <text class="cls-2" transform="translate(415.98 124.75) rotate(24.65) scale(1.17 1)"><tspan x="0" y="0">A</tspan></text>
        <text class="cls-2" transform="translate(451.45 142.59) rotate(34.92) scale(1.17 1)"><tspan x="0" y="0">G</tspan></text>
        <text class="cls-2" transform="translate(485.66 168.57) rotate(45.13) scale(1.17 1)"><tspan x="0" y="0">E</tspan></text>
        <g>
          <path d="m78.7,304.19c-1.84,10.8-56.89,91.8,57.09,67.05,116.12-25.22,407.59-150.67,407.59-150.67l37.29,12.06.71,26.73s-267.73,109.35-445.39,153.11c-177.66,43.75-57.29-108.28-57.29-108.28Z"/>
          <path d="m78.7,304.19c-1.64,5.7-4.71,10.91-6.89,16.42-4.45,10.8-8.87,22.49-7.41,34.33,4.98,33.26,64.93,17.26,86.7,11.72,7.97-2.09,17.86-4.88,25.69-7.29,79.45-24.57,156.77-55.53,233.82-86.69,44.54-18.04,88.71-37.09,132.92-55.85,0,0,.92.39.92.39,0,0,36.22,15.39,36.22,15.39,0,0,3.72,26.65,3.72,26.65,0,0,.05,2.1.05,2.1-106.31,42.2-213.68,81.69-322.69,116.35-33.82,10.64-68.01,20.79-102.33,29.75-27.46,6.96-55.43,14.87-84.05,13.32-71.76-4.87-20.86-85.58,3.33-116.61h0Zm0,0c-16.51,21.97-46.99,68.16-37.64,95.94,13.61,36.27,90.02,12.56,117.85,5.4,143.6-39.96,283.21-93.31,421.34-148.96,0,0-1.87,2.87-1.87,2.87,0,0,2.3-26.82,2.29-26.81,0,0-38.37-8.73-38.37-8.73l2.46-.12c-43.88,18.42-87.94,36.3-132.2,53.74-74.74,29.21-149.79,57.98-226.61,81.34-7.88,2.34-17.83,5.16-25.76,7.29-23.49,5.8-91.16,25.15-96.38-11.12-1.35-12.02,3.22-23.65,7.82-34.49,2.24-5.49,5.37-10.66,7.07-16.34h0Z"/>
        </g>
      </g>
    </g>
  </g>
</svg>